<svg xmlns="http://www.w3.org/2000/svg" width="113.153" height="71.152"><g data-name="グループ 5688"><g data-name="グループ 5681"><path data-name="パス 3762" d="M68.894 34.45A34.447 34.447 0 1134.45 0a34.448 34.448 0 0134.444 34.45z" fill="#00276d"/><g data-name="グループ 5670"><path data-name="パス 3763" d="M41.468 24.074c-5.158 0-8.9 4.181-8.9 9.941v.225c0 5.911 3.566 9.884 8.872 9.884a10.636 10.636 0 006.529-2.263V33.35h-6.667v2.19h4.252v5.032l-.161.115a6.74 6.74 0 01-3.809 1.139c-3.773 0-6.31-3.082-6.31-7.669v-.173c0-4.376 2.582-7.552 6.139-7.552a6.421 6.421 0 014.422 1.644l1.528-2.037a8.845 8.845 0 00-5.895-1.965z" fill="#fff"/></g><g data-name="グループ 5671"><path data-name="パス 3764" d="M51.6 41.518a10.093 10.093 0 006.791 2.582c3.7 0 6.179-2.194 6.179-5.459 0-2.669-1.422-4.186-5.247-5.657-3.485-1.349-4.438-2.178-4.438-3.856 0-1.632 1.37-2.751 3.331-2.751a7.443 7.443 0 014.467 1.746l1.459-1.97a9 9 0 00-5.839-2.049c-3.554 0-6.037 2.172-6.037 5.285s1.966 4.438 5.592 5.8c3.121 1.152 4.124 2.04 4.124 3.654 0 1.768-1.465 2.984-3.563 2.984a7.981 7.981 0 01-5.272-2.232z" fill="#fff"/></g><g data-name="グループ 5673"><g data-name="グループ 5672"><path data-name="パス 3765" d="M71.487 44.03h12.11v-2.4H79.26V24.027h-2.089l-5.744 2.3.528 2.538 4.448-1.783v14.553h-4.918z" fill="#00276d"/></g></g><g data-name="グループ 5674"><path data-name="パス 3766" d="M60.811 6.041V6.02a3.367 3.367 0 116.733-.018v.018a3.367 3.367 0 11-6.733.021zm6.011-.021v-.018a2.644 2.644 0 10-5.287.018v.016a2.624 2.624 0 002.642 2.661 2.651 2.651 0 002.645-2.677zm-3.946-1.7h1.537c.756 0 1.319.343 1.319 1.083a1.009 1.009 0 01-.723 1.013l.831 1.173h-.956l-.706-1.03h-.506v1.03h-.8zm1.483 1.589c.361 0 .559-.179.559-.451 0-.288-.218-.45-.559-.45h-.688v.9z" fill="#00276d"/></g><g data-name="グループ 5676"><g data-name="グループ 5675" fill="#fff"><path data-name="パス 3767" d="M7.033 34.449A29.971 29.971 0 0134.509 4.584l-.05-.106h-.009a29.969 29.969 0 100 59.938h.009l.05-.107a29.964 29.964 0 01-27.476-29.86z"/><path data-name="パス 3768" d="M13.733 34.449A25.475 25.475 0 0136.61 9.107l-.061-.129a25.472 25.472 0 000 50.936l.061-.13a25.468 25.468 0 01-22.877-25.335z"/><path data-name="パス 3769" d="M20.144 34.448a21.015 21.015 0 0118.545-20.865l-.064-.137a21.009 21.009 0 000 42l.064-.139a21.011 21.011 0 01-18.545-20.859z"/><path data-name="パス 3770" d="M26.303 34.448a16.5 16.5 0 0114.473-16.37l-.054-.118a16.492 16.492 0 000 32.973l.054-.118a16.493 16.493 0 01-14.473-16.367z"/></g></g></g><g data-name="グループ 5677" fill="#eb5f24"><path data-name="パス 3771" d="M70.66 67.451l1.408-1.568a2.506 2.506 0 001.858 1.016c.842 0 1.365-.508 1.365-1.684v-6.546h2.297v6.648a3.688 3.688 0 01-.958 2.714 3.629 3.629 0 01-2.642.943 4.154 4.154 0 01-3.328-1.523z"/><path data-name="パス 3772" d="M79.019 66.595v-.029c0-1.7 1.292-2.482 3.135-2.482a5.528 5.528 0 011.9.319v-.131c0-.914-.566-1.422-1.669-1.422a5.72 5.72 0 00-2.149.421l-.551-1.684a6.864 6.864 0 013.019-.624 3.591 3.591 0 012.627.871 3.392 3.392 0 01.842 2.482v4.514h-2.129v-.842a2.99 2.99 0 01-2.351.987 2.407 2.407 0 01-2.674-2.38zm5.066-.508v-.392a3.419 3.419 0 00-1.408-.291c-.943 0-1.524.378-1.524 1.074v.029c0 .595.494.944 1.2.944 1.036.001 1.732-.565 1.732-1.364z"/><path data-name="パス 3773" d="M87.929 61.05h2.207v1.121a2.857 2.857 0 012.424-1.263c1.814 0 3.542 1.422 3.542 4.021v.029c0 2.6-1.7 4.021-3.542 4.021a2.987 2.987 0 01-2.424-1.161v3.338h-2.207zm5.966 3.9v-.029a1.909 1.909 0 10-3.788 0v.029a1.909 1.909 0 103.788 0z"/><path data-name="パス 3774" d="M97.115 66.595v-.029c0-1.7 1.292-2.482 3.136-2.482a5.527 5.527 0 011.9.319v-.131c0-.914-.566-1.422-1.669-1.422a5.715 5.715 0 00-2.148.421l-.552-1.684a6.863 6.863 0 013.019-.624 3.591 3.591 0 012.627.871 3.392 3.392 0 01.842 2.482v4.514h-2.136v-.842a2.991 2.991 0 01-2.351.987 2.407 2.407 0 01-2.668-2.38zm5.066-.508v-.392a3.417 3.417 0 00-1.408-.291c-.944 0-1.524.378-1.524 1.074v.029c0 .595.493.944 1.2.944 1.036.001 1.732-.565 1.732-1.364z"/><path data-name="パス 3775" d="M106.026 61.05h2.206v1.1a2.753 2.753 0 012.279-1.248c1.669 0 2.642 1.1 2.642 2.889v5.036h-2.206v-4.34c0-1.046-.494-1.582-1.335-1.582s-1.379.536-1.379 1.582v4.34h-2.206z"/></g></g></svg>